<svg width="32" height="32" viewBox="0 0 32 32" fill="none" xmlns="http://www.w3.org/2000/svg">
<path d="M14.12 17.88C14.6667 18.4 14.6667 19.2533 14.12 19.7733C13.6 20.2933 12.7467 20.2933 12.2267 19.7733C10.9778 18.5226 10.2764 16.8274 10.2764 15.06C10.2764 13.2925 10.9778 11.5974 12.2267 10.3466L16.9467 5.62665C18.1974 4.37782 19.8926 3.67639 21.66 3.67639C23.4274 3.67639 25.1226 4.37782 26.3733 5.62665C27.6222 6.87735 28.3236 8.57254 28.3236 10.34C28.3236 12.1074 27.6222 13.8026 26.3733 15.0533L24.3867 17.04C24.4 15.9466 24.2267 14.8533 23.8533 13.8133L24.48 13.1733C24.8538 12.8036 25.1505 12.3634 25.353 11.8782C25.5556 11.393 25.6598 10.8724 25.6598 10.3466C25.6598 9.82088 25.5556 9.30034 25.353 8.81514C25.1505 8.32994 24.8538 7.88973 24.48 7.51998C24.1102 7.1462 23.67 6.84946 23.1848 6.64694C22.6996 6.44442 22.1791 6.34014 21.6533 6.34014C21.1276 6.34014 20.607 6.44442 20.1218 6.64694C19.6366 6.84946 19.1964 7.1462 18.8267 7.51998L14.12 12.2266C13.7462 12.5964 13.4495 13.0366 13.247 13.5218C13.0444 14.007 12.9402 14.5275 12.9402 15.0533C12.9402 15.5791 13.0444 16.0996 13.247 16.5848C13.4495 17.07 13.7462 17.5102 14.12 17.88ZM17.88 12.2266C18.4 11.7066 19.2533 11.7066 19.7733 12.2266C21.0222 13.4774 21.7236 15.1725 21.7236 16.94C21.7236 18.7074 21.0222 20.4026 19.7733 21.6533L15.0533 26.3733C13.8026 27.6221 12.1074 28.3236 10.34 28.3236C8.57256 28.3236 6.87737 27.6221 5.62666 26.3733C4.37783 25.1226 3.67641 23.4274 3.67641 21.66C3.67641 19.8925 4.37783 18.1974 5.62666 16.9466L7.61333 14.96C7.6 16.0533 7.77333 17.1466 8.14666 18.2L7.52 18.8266C7.14621 19.1964 6.84947 19.6366 6.64696 20.1218C6.44444 20.607 6.34016 21.1275 6.34016 21.6533C6.34016 22.1791 6.44444 22.6996 6.64696 23.1848C6.84947 23.67 7.14621 24.1102 7.52 24.48C7.88975 24.8538 8.32996 25.1505 8.81516 25.353C9.30035 25.5555 9.8209 25.6598 10.3467 25.6598C10.8724 25.6598 11.393 25.5555 11.8782 25.353C12.3634 25.1505 12.8036 24.8538 13.1733 24.48L17.88 19.7733C18.2538 19.4036 18.5505 18.9634 18.753 18.4782C18.9556 17.993 19.0598 17.4724 19.0598 16.9466C19.0598 16.4209 18.9556 15.9003 18.753 15.4151C18.5505 14.9299 18.2538 14.4897 17.88 14.12C17.7505 13.9986 17.6473 13.852 17.5767 13.6892C17.5061 13.5264 17.4697 13.3508 17.4697 13.1733C17.4697 12.9959 17.5061 12.8203 17.5767 12.6574C17.6473 12.4946 17.7505 12.348 17.88 12.2266Z" fill="#0F0F0F"/>
</svg>
