<svg width="32" height="32" viewBox="0 0 32 32" fill="none" xmlns="http://www.w3.org/2000/svg">
<path d="M6 10C6 7.34784 7.05357 4.8043 8.92893 2.92893C10.8043 1.05357 13.3478 0 16 0C18.6522 0 21.1957 1.05357 23.0711 2.92893C24.9464 4.8043 26 7.34784 26 10V22C26 24.6522 24.9464 27.1957 23.0711 29.0711C21.1957 30.9464 18.6522 32 16 32C13.3478 32 10.8043 30.9464 8.92893 29.0711C7.05357 27.1957 6 24.6522 6 22V10ZM17 7C17 6.73478 16.8946 6.48043 16.7071 6.29289C16.5196 6.10536 16.2652 6 16 6C15.7348 6 15.4804 6.10536 15.2929 6.29289C15.1054 6.48043 15 6.73478 15 7V11C15 11.2652 15.1054 11.5196 15.2929 11.7071C15.4804 11.8946 15.7348 12 16 12C16.2652 12 16.5196 11.8946 16.7071 11.7071C16.8946 11.5196 17 11.2652 17 11V7Z" fill="#0F0F0F"/>
</svg>
